<?xml version="1.0" encoding="UTF-8" standalone="no"?>
<svg width="275px" height="80px" viewBox="0 0 275 80" version="1.1" xmlns="http://www.w3.org/2000/svg" xmlns:xlink="http://www.w3.org/1999/xlink" xmlns:sketch="http://www.bohemiancoding.com/sketch/ns">
    <!-- Generator: Sketch 3.3.3 (12081) - http://www.bohemiancoding.com/sketch -->
    <title>Newsweek Logo</title>
    <desc>Created with Sketch.</desc>
    <defs></defs>
    <g id="Desktop" stroke="none" stroke-width="1" fill="none" fill-rule="evenodd" sketch:type="MSPage">
        <g id="Desktop-Nav-[Default]-Signed-Out" sketch:type="MSArtboardGroup">
            <g id="Desktop-Nav-[Default]" sketch:type="MSLayerGroup" transform="translate(0.000000, -1.000000)">
                <g id="Newsweek-Logo" transform="translate(0.000000, 1.000000)" sketch:type="MSShapeGroup">
                    <rect id="Rectangle-7" fill="#FF0500" x="0" y="0" width="275" height="80"></rect>
                    <path d="M64.1518842,42.6671584 L72.2336569,42.6671584 C72.2336569,39.1912864 69.9711308,37.8051344 68.2807165,37.8051344 C66.3304759,37.8051344 64.2888948,39.4177859 64.1518842,42.6671584 L64.1518842,42.6671584 Z M184.303373,42.6128479 L192.38638,42.6128479 C192.38638,39.1375931 190.123854,37.751441 188.432823,37.751441 C186.482582,37.751441 184.441618,39.3622411 184.303373,42.6128479 L184.303373,42.6128479 Z M208.701748,42.5591546 L216.783521,42.5591546 C216.783521,39.0832826 214.520995,37.6965134 212.830581,37.6965134 C210.88034,37.6965134 208.838759,39.3085477 208.701748,42.5591546 L208.701748,42.5591546 Z M252.427872,55.8639927 C252.472925,55.8294315 252.49576,55.782527 252.49576,55.7275993 C252.49576,55.6714373 252.473542,55.6270015 252.430341,55.5905887 C252.387139,55.5560275 252.315548,55.5381297 252.211865,55.5381297 L252.034121,55.5381297 L252.034121,55.9164517 L252.197053,55.9164517 C252.306291,55.9164517 252.382819,55.8991711 252.427872,55.8639927 L252.427872,55.8639927 Z M252.472925,56.1293736 C252.532173,56.1503572 252.574757,56.1762781 252.601913,56.2003475 C252.641411,56.2342916 252.68091,56.2879849 252.722877,56.3546387 C252.725346,56.359576 252.808663,56.5076956 252.969743,56.7983802 L252.521064,56.7983802 C252.376648,56.5058441 252.278518,56.3324208 252.229145,56.2750245 C252.179155,56.2194796 252.129165,56.1910901 252.081026,56.1910901 C252.068065,56.1910901 252.053253,56.1917072 252.034121,56.1966445 L252.034121,56.7983802 L251.674314,56.7983802 L251.674314,55.2721317 L252.335915,55.2721317 C252.52847,55.2721317 252.644497,55.3110131 252.7309,55.389393 C252.817303,55.4671558 252.860505,55.5720738 252.860505,55.7016784 C252.860505,55.8035106 252.827178,55.8917651 252.762376,55.9664421 C252.695722,56.0405019 252.614873,56.0948124 252.472925,56.1293736 L252.472925,56.1293736 Z M253.078364,56.8489877 C253.303629,56.6249569 253.415953,56.3534044 253.415953,56.0355645 C253.415953,55.7171075 253.303629,55.4461722 253.078364,55.2215242 C252.85495,54.9962591 252.582781,54.8833179 252.265558,54.8833179 C251.947101,54.8833179 251.676783,54.9962591 251.450283,55.2215242 C251.22687,55.4461722 251.114546,55.7171075 251.114546,56.0355645 C251.114546,56.3534044 251.22687,56.6249569 251.450283,56.8489877 C251.676783,57.0730185 251.947101,57.187194 252.265558,57.187194 C252.582781,57.187194 252.85495,57.0730185 253.078364,56.8489877 L253.078364,56.8489877 Z M253.691826,56.0355645 C253.691826,56.2910707 253.627641,56.528062 253.501122,56.749007 C253.372752,56.969952 253.197477,57.1439925 252.979618,57.2717456 C252.757438,57.3994987 252.518595,57.4624495 252.264324,57.4624495 C252.010052,57.4624495 251.77306,57.3994987 251.552115,57.2717456 C251.33117,57.1439925 251.157747,56.969952 251.029377,56.749007 C250.903475,56.528062 250.837439,56.2910707 250.837439,56.0355645 C250.837439,55.7806755 250.903475,55.543067 251.029377,55.3215049 C251.157747,55.0993256 251.33117,54.9265194 251.552115,54.7993835 C251.77306,54.6710132 252.010052,54.6074453 252.264324,54.6074453 C252.518595,54.6074453 252.757438,54.6710132 252.979618,54.7993835 C253.197477,54.9265194 253.372752,55.0993256 253.501122,55.3215049 C253.627641,55.543067 253.691826,55.7806755 253.691826,56.0355645 L253.691826,56.0355645 Z M250.372714,57.4025845 L242.928472,57.4025845 L235.209592,47.302683 L232.686623,49.1782468 L232.686623,51.1346591 L234.888049,51.1346591 L234.888049,57.4025845 L223.461244,57.4025845 L223.461244,51.1587285 L225.628109,51.1587285 L225.628109,29.1858112 L222.378737,29.1858112 L222.378737,23.0302097 L232.686623,23.0302097 L232.686623,42.7955287 L237.851058,39.0190975 L234.601068,39.0190975 L234.601068,32.7190795 L248.518751,32.7190795 L248.518751,39.0190975 L246.351885,39.0190975 L240.912812,43.0602924 L247.123958,51.153174 L250.372714,51.153174 L250.372714,57.4025845 L250.372714,57.4025845 Z M223.531601,45.0296652 C223.531601,45.5332716 223.531601,46.0368781 223.48593,46.5867719 L208.686319,46.5867719 C208.304911,51.3414093 210.073706,52.7806375 212.8133,52.7806375 C215.101747,52.7806375 216.800802,51.2889503 216.800802,48.9208891 L223.179817,48.9208891 C223.042806,53.0855169 220.830887,57.8919962 212.409057,57.8919962 C203.940939,57.8919962 200.005279,51.8036657 200.005279,44.9846121 C200.005279,38.8962817 204.078567,32.3969195 212.271429,32.3969195 C220.098313,32.3969195 223.531601,37.8440157 223.531601,45.0296652 L223.531601,45.0296652 Z M199.133843,45.0833585 C199.133843,45.5875821 199.133843,46.0905714 199.088173,46.6398481 L184.289179,46.6398481 C183.907771,51.3951026 185.676565,52.8343309 188.415542,52.8343309 C190.703989,52.8343309 192.403661,51.3438779 192.403661,48.9745824 L198.782059,48.9745824 C198.645048,53.1404446 196.433747,57.9456895 188.011299,57.9456895 C179.543799,57.9456895 175.606905,51.8579762 175.606905,45.0383055 C175.606905,38.9512093 179.680809,32.45123 187.874289,32.45123 C195.701172,32.45123 199.133843,37.8989434 199.133843,45.0833585 L199.133843,45.0833585 Z M176.29566,38.9758959 L174.128178,38.9758959 L168.640349,57.4507234 L161.351016,57.4507234 L157.89983,47.3298383 L154.848567,57.4507234 L147.411115,57.4507234 L141.25181,38.9758959 L139.084945,38.9758959 L139.084945,32.7190795 L151.969494,32.7190795 L151.969494,38.9758959 L148.718887,38.9758959 L152.074412,48.8141195 L156.495163,32.7190795 L160.457361,32.7190795 L165.884091,48.8135024 L168.77057,38.9758959 L165.520581,38.9758959 L165.520581,32.7190795 L176.29566,32.7190795 L176.29566,38.9758959 L176.29566,38.9758959 Z M124.861766,39.2326365 C124.861766,40.1040731 125.54867,40.69902 127.974128,41.4766476 L131.453703,42.6208711 C134.657405,43.6737542 138.501724,46.0541587 138.501724,50.4027017 C138.501724,55.5294894 134.657405,58 129.942266,58 C126.189904,58 123.223193,56.1688721 122.445566,55.3455743 L122.435691,57.4507234 L116.136907,57.4507234 L116.136907,48.8912651 L122.29868,48.8912651 C122.481978,51.6845529 124.953723,53.1478506 127.24217,53.1478506 C129.073298,53.1478506 129.942266,52.3708401 129.942266,51.4099146 C129.942266,50.2650739 129.255979,49.6238397 126.143617,48.6178612 L123.076925,47.6087967 C119.964563,46.6028182 116.439935,44.3143712 116.439935,40.1491262 C116.439935,35.0680086 120.925489,32.5055405 124.770425,32.5055405 C128.752372,32.5055405 130.655091,33.6121169 131.616634,34.7112874 L131.636383,32.7888191 L137.946276,32.7888191 L137.946276,40.5237452 L131.453703,40.5237452 C131.361745,38.417979 129.301649,37.4947005 127.24217,37.4947005 C125.64001,37.4947005 124.861766,38.2260407 124.861766,39.2326365 L124.861766,39.2326365 Z M115.806107,38.9758959 L113.639241,38.9758959 L108.151412,57.4507234 L100.862079,57.4507234 L97.4108937,47.3298383 L94.3590139,57.4507234 L86.9215613,57.4507234 L80.762874,38.9758959 L78.5953914,38.9758959 L78.5953914,32.7190795 L91.4799403,32.7190795 L91.4799403,38.9758959 L88.2305678,38.9758959 L91.5854755,48.8141195 L96.0062267,32.7190795 L99.9678074,32.7190795 L105.394537,48.8135024 L108.281634,38.9758959 L105.032261,38.9758959 L105.032261,32.7190795 L115.806107,32.7190795 L115.806107,38.9758959 L115.806107,38.9758959 Z M78.9817365,45.137669 C78.9817365,45.6418926 78.9817365,46.1448819 78.9360663,46.6953929 L64.1370723,46.6953929 C63.7556644,51.4500303 65.5244587,52.8892585 68.2634359,52.8892585 C70.5525001,52.8892585 72.2515547,51.3969541 72.2515547,49.0288929 L78.6299526,49.0288929 C78.492942,53.1941379 76.2810235,58 67.859193,58 C59.3916923,58 55.4554154,51.9122867 55.4554154,45.0932331 C55.4554154,39.0049027 59.5287029,32.5055405 67.7215653,32.5055405 C75.5484489,32.5055405 78.9817365,37.9526367 78.9817365,45.137669 Z M57.6168685,29.2156907 L54.3736844,29.2156907 L54.3736844,57.1168685 L48.3917156,57.1168685 L33.7752154,38.107658 L33.7752154,50.9011779 L37.0183996,50.9011779 L37.0183996,57.1168685 L23.5,57.1168685 L23.5,50.9011779 L26.7425683,50.9011779 L26.7425683,29.2156907 L23.5,29.2156907 L23.5,23 L33.7622821,23 L47.3416531,40.6934 L47.3416531,29.2156907 L44.0978531,29.2156907 L44.0978531,23 L57.6168685,23 L57.6168685,29.2156907 Z" id="Logo-Copy" fill="#FFFFFF"></path>
                </g>
            </g>
        </g>
    </g>
</svg>